<svg width="85" height="78" viewBox="0 0 85 78" fill="none" xmlns="http://www.w3.org/2000/svg">
<path d="M81.7033 71.3348H36.6049C39.0502 63.6885 40.4216 53.797 40.4216 43.4554C40.4216 20.5194 26.2201 2.24095 25.6156 1.47424C25.0718 0.784505 24.2422 0.382114 23.3641 0.382114C22.4861 0.382114 21.6564 0.784505 21.1126 1.47424C20.5082 2.24095 6.3066 20.5197 6.3066 43.4554C6.3066 53.797 7.67776 63.6885 10.1233 71.3348H2.86682C1.28359 71.3348 0 72.6184 0 74.2016C0 75.7848 1.28359 77.0684 2.86682 77.0684H81.7033C83.2865 77.0684 84.5701 75.7848 84.5701 74.2016C84.5701 72.6184 83.2863 71.3348 81.7033 71.3348ZM30.5499 71.3348H26.2309V13.1204C30.0786 20.1908 34.688 31.2145 34.688 43.4554C34.688 54.0746 33.1909 64.0929 30.5499 71.3348ZM12.0405 43.4554C12.0405 31.2139 16.6503 20.1903 20.4976 13.1204V71.3348H16.1786C13.5376 64.0929 12.0405 54.0746 12.0405 43.4554Z" fill="#FFBA08"/>
</svg>
